<?xml version="1.0" encoding="UTF-8" standalone="no"?>
<!-- Created with Inkscape (http://www.inkscape.org/) -->

<svg
   width="1740mm"
   height="512mm"
   viewBox="0 0 1740 512"
   version="1.1"
   id="svg1"
   xml:space="preserve"
   inkscape:version="1.3.1 (91b66b0783, 2023-11-16)"
   sodipodi:docname="full_logo_dark.svg"
   inkscape:export-filename="full_logo_dark.png"
   inkscape:export-xdpi="25.4"
   inkscape:export-ydpi="25.4"
   xmlns:inkscape="http://www.inkscape.org/namespaces/inkscape"
   xmlns:sodipodi="http://sodipodi.sourceforge.net/DTD/sodipodi-0.dtd"
   xmlns:xlink="http://www.w3.org/1999/xlink"
   xmlns="http://www.w3.org/2000/svg"
   xmlns:svg="http://www.w3.org/2000/svg"><sodipodi:namedview
     id="namedview1"
     pagecolor="#505050"
     bordercolor="#eeeeee"
     borderopacity="1"
     inkscape:showpageshadow="0"
     inkscape:pageopacity="0"
     inkscape:pagecheckerboard="0"
     inkscape:deskcolor="#505050"
     inkscape:document-units="mm"
     inkscape:zoom="0.086524095"
     inkscape:cx="2403.9546"
     inkscape:cy="-387.17539"
     inkscape:window-width="1920"
     inkscape:window-height="991"
     inkscape:window-x="1911"
     inkscape:window-y="-9"
     inkscape:window-maximized="1"
     inkscape:current-layer="layer1" /><defs
     id="defs1"><rect
       x="1173.0836"
       y="-406.29922"
       width="3733.0642"
       height="1859.9945"
       id="rect1" /><linearGradient
       id="linearGradient11"
       gradientUnits="userSpaceOnUse"
       x1="-154.08701"
       x2="316.28299"
       y1="274.04099"
       y2="501.116"
       gradientTransform="matrix(0.82704001,0,0,0.82704001,-384.13793,0.440187)"><stop
         offset=".107"
         stop-color="#c957e6"
         id="stop10" /><stop
         offset="1"
         stop-color="#1a9fff"
         id="stop11"
         style="stop-color:#0085e5;stop-opacity:1;" /></linearGradient><linearGradient
       id="linearGradient9"
       gradientUnits="userSpaceOnUse"
       x1="-154.08701"
       x2="316.28299"
       y1="274.04099"
       y2="501.116"
       gradientTransform="matrix(0.82704001,0,0,0.82704001,-384.13793,0.440187)"><stop
         offset=".107"
         stop-color="#c957e6"
         id="stop8"
         style="stop-color:#dfdfdf;stop-opacity:1" /><stop
         offset="1"
         stop-color="#1a9fff"
         id="stop9" /></linearGradient><linearGradient
       id="a"
       gradientUnits="userSpaceOnUse"
       x1="-154.08701"
       x2="316.28299"
       y1="274.04099"
       y2="501.116"
       gradientTransform="matrix(0.82704001,0,0,0.82704001,-384.13793,0.440187)"><stop
         offset=".107"
         stop-color="#c957e6"
         id="stop1" /><stop
         offset="1"
         stop-color="#1a9fff"
         id="stop2" /></linearGradient><linearGradient
       inkscape:collect="always"
       xlink:href="#linearGradient11"
       id="linearGradient4"
       x1="3.8298731"
       y1="4.8947935"
       x2="8.8708048"
       y2="7.4738979"
       gradientUnits="userSpaceOnUse" /><linearGradient
       inkscape:collect="always"
       xlink:href="#a"
       id="linearGradient6"
       x1="3.3965671"
       y1="4.6445546"
       x2="9.3035984"
       y2="6.3497868"
       gradientUnits="userSpaceOnUse" /><linearGradient
       inkscape:collect="always"
       xlink:href="#a"
       id="linearGradient8"
       x1="16.62184"
       y1="6.9737353"
       x2="22.474207"
       y2="9.9045362"
       gradientUnits="userSpaceOnUse" /></defs><g
     inkscape:label="Layer 1"
     inkscape:groupmode="layer"
     id="layer1"><g
       inkscape:label="Layer 1"
       id="layer1-3"
       transform="translate(121.7163)"
       style="display:inline"><path
         d="m 417.00591,255.9968 c 0,-90.62859 -72.08706,-164.100672 -161.00592,-164.100672 V -3.1644673e-6 C 394.71819,-3.1644673e-6 507.16644,114.61568 507.16644,255.9968 507.16644,397.38432 394.71819,512 255.99999,512 v -91.89612 c 88.91886,0 161.00592,-73.4721 161.00592,-164.10708 z"
         fill="#1b1b1b"
         id="path3"
         style="fill:#1b1b1b;fill-opacity:1;stroke-width:0.633608" /><g
         inkscape:label="Layer 1"
         id="layer1-4"
         transform="matrix(23.06858,0,0,23.548683,109.51689,106.46587)"><g
           id="g531"
           transform="matrix(0.1353646,0,0,0.1353646,15.301582,0.52916663)" /><g
           id="g397"><path
             style="fill:#99cd61;fill-opacity:1;stroke-width:0.264583"
             d="M 6.3500002,6.350001 Z"
             id="path7899" /><path
             id="path3228"
             style="fill:#df6277;fill-opacity:1;stroke-width:0.264583"
             d="M 6.35,0.52916667 3.8292236,4.8947917 6.35,6.35 8.8702596,4.8947917 8.9798136,1.7952393 C 7.828708,1.1306481 6.6410414,0.52916667 6.35,0.52916667 Z" /><path
             id="path2659"
             style="fill:#fb9168;fill-opacity:1;stroke-width:0.264583"
             d="M 8.9798136,1.7952393 6.35,6.35 8.8702596,7.8052083 11.391036,3.4395833 C 11.245515,3.1875341 10.130919,2.4598305 8.9798136,1.7952393 Z" /><path
             id="path2708"
             style="fill:#f3db6c;fill-opacity:1;stroke-width:0.264583"
             d="M 11.391036,3.4395833 6.35,6.35 8.8702596,7.8052083 11.609111,6.35 c 0,-1.3291823 -0.07255,-2.6583674 -0.218075,-2.9104167 z" /><path
             id="path1737"
             style="fill:#7ab392;fill-opacity:1;stroke-width:0.264583"
             d="m 6.35,6.35 v 2.9104167 h 5.041036 C 11.536557,9.0083674 11.60911,7.6791823 11.609111,6.35 Z" /><path
             id="path2937"
             style="fill:#4b7cbc;fill-opacity:1;stroke-width:0.264583"
             d="M 6.35,6.35 V 9.2604167 L 8.9798136,10.904761 C 10.130919,10.24017 11.245515,9.5124659 11.391036,9.2604167 Z" /><path
             id="path3117"
             style="fill:#6f488c;fill-opacity:1;stroke-width:0.264583"
             d="M 6.35,6.35 3.8292236,7.8052083 6.35,12.170833 c 0.2910414,0 1.4787079,-0.601481 2.6298136,-1.266072 z" /><path
             id="path2010"
             style="fill:#4d3f33;fill-opacity:1;stroke-width:0.264583"
             d="M 3.8292236,4.8947917 1.308964,9.2604167 C 1.6000054,9.7645152 5.7679172,12.170833 6.35,12.170833 V 6.35 Z" /><path
             id="path1744"
             style="fill:#7a573b;fill-opacity:1;stroke-width:0.264583"
             d="m 1.308964,3.4395833 c -0.2910414,0.5040985 -0.2910413,5.3167349 0,5.8208334 L 6.35,6.35 V 3.4395833 Z" /><path
             id="path1739"
             style="fill:#99cd61;fill-opacity:1;stroke-width:0.264583"
             d="M 6.35,0.52916667 C 5.7679172,0.52916665 1.6000054,2.9354849 1.308964,3.4395833 L 6.35,6.35 Z" /><g
             id="g379"><g
               id="g1657"
               transform="matrix(0.87999988,0,0,0.87999988,-10.906495,-1.242093)"><g
                 id="g7651"
                 transform="translate(13.259961,2.2775894)"><path
                   id="path6659"
                   style="fill:url(#linearGradient6);stroke-width:0.264583"
                   d="m 6.3498163,2.9393223 c -0.3410461,0 -2.782726,1.4098777 -2.9532491,1.7052323 L 6.3498163,9.7602513 9.3035983,4.6445546 C 9.1330753,4.3492 6.6908624,2.9393223 6.3498163,2.9393223 Z"
                   sodipodi:nodetypes="scccs"
                   transform="matrix(0.96974817,0,0,0.96974817,0.19209885,0.19209792)" /></g><path
                 id="path461"
                 style="fill:url(#linearGradient8);stroke-width:0.264583"
                 d="m 16.745875,6.9737355 2.863908,4.9609385 c 0.330729,0 2.69906,-1.367226 2.864424,-1.653646 0.165365,-0.2864204 0.165365,-3.0208729 0,-3.3072925 l -2.864424,1.6536459 z"
                 sodipodi:nodetypes="ccsccc" /></g><path
               id="path5065"
               style="fill:url(#linearGradient4);stroke-width:0.264583"
               d="m 3.8298625,4.8947933 c -0.1455111,0.2520549 -0.1455304,2.6583729 0,2.9104166 0.1455304,0.2520438 2.2292181,1.4552195 2.5202596,1.4552084 V 6.3500016 Z"
               sodipodi:nodetypes="csccc" /></g></g></g><text
         xml:space="preserve"
         transform="matrix(0.26458333,0,0,0.26458333,315.98662,156.30861)"
         id="text1"
         style="font-size:666.667px;font-family:sans-serif;-inkscape-font-specification:'sans-serif, Normal';white-space:pre;shape-inside:url(#rect1);display:inline;fill:#1b1b1b;fill-opacity:1;stroke:#000000;stroke-width:0;stroke-dasharray:none"><tspan
           x="1173.084"
           y="200.28492"
           id="tspan3"><tspan
             dx="0 0 0 0 0 0 -0.00018310547"
             style="font-family:Monospace;-inkscape-font-specification:Monospace"
             id="tspan2">Prism 4 </tspan></tspan><tspan
           x="1173.084"
           y="1050.3583"
           id="tspan5"><tspan
             style="font-family:Monospace;-inkscape-font-specification:Monospace"
             id="tspan4">Steam</tspan></tspan></text></g></g></svg>
